<svg width="131" height="29" viewBox="0 0 131 29" fill="none" xmlns="http://www.w3.org/2000/svg">
<path d="M5 12.5C6.65685 12.5 8 11.1569 8 9.5C8 7.84315 6.65685 6.5 5 6.5C3.34315 6.5 2 7.84315 2 9.5C2 11.1569 3.34315 12.5 5 12.5Z" fill="#FFE537" stroke="#FFE537" stroke-width="1.5"/>
<path d="M8 24.5C10.2091 24.5 12 22.7091 12 20.5C12 18.2909 10.2091 16.5 8 16.5C5.79086 16.5 4 18.2909 4 20.5C4 22.7091 5.79086 24.5 8 24.5Z" fill="#FFE537" stroke="#FFE537" stroke-width="1.5"/>
<path d="M17 14.5C19.7614 14.5 22 12.2614 22 9.5C22 6.73858 19.7614 4.5 17 4.5C14.2386 4.5 12 6.73858 12 9.5C12 12.2614 14.2386 14.5 17 14.5Z" fill="#FFE537" stroke="#FFE537" stroke-width="1.5"/>
<path d="M33.992 23V6.2H37.208L47.12 18.296H45.56V6.2H49.4V23H46.208L36.272 10.904H37.832V23H33.992ZM54.7428 27.848C54.0708 27.848 53.4068 27.744 52.7508 27.536C52.0948 27.328 51.5588 27.04 51.1428 26.672L52.5108 24.008C52.7988 24.264 53.1268 24.464 53.4948 24.608C53.8788 24.752 54.2548 24.824 54.6228 24.824C55.1508 24.824 55.5668 24.696 55.8708 24.44C56.1908 24.2 56.4788 23.792 56.7348 23.216L57.4068 21.632L57.6948 21.224L62.3268 10.088H65.9268L60.0948 23.792C59.6788 24.832 59.1988 25.648 58.6548 26.24C58.1268 26.832 57.5348 27.248 56.8788 27.488C56.2388 27.728 55.5268 27.848 54.7428 27.848ZM56.9508 23.504L51.1908 10.088H55.0548L59.5188 20.888L56.9508 23.504ZM70.0784 23L65.4224 10.088H68.9504L72.8144 21.2H71.1344L75.1664 10.088H78.3344L82.2464 21.2H80.5664L84.5504 10.088H87.8624L83.1824 23H79.5584L76.1264 13.472H77.2304L73.6784 23H70.0784ZM95.2346 23.192C93.7146 23.192 92.5306 22.808 91.6826 22.04C90.8346 21.256 90.4106 20.096 90.4106 18.56V7.232H94.1546V18.512C94.1546 19.056 94.2986 19.48 94.5866 19.784C94.8746 20.072 95.2666 20.216 95.7626 20.216C96.3546 20.216 96.8586 20.056 97.2746 19.736L98.2826 22.376C97.8986 22.648 97.4346 22.856 96.8906 23C96.3626 23.128 95.8106 23.192 95.2346 23.192ZM88.4186 13.256V10.376H97.3706V13.256H88.4186ZM106.13 23.192C104.754 23.192 103.53 22.904 102.458 22.328C101.402 21.752 100.562 20.968 99.9378 19.976C99.3298 18.968 99.0258 17.824 99.0258 16.544C99.0258 15.248 99.3298 14.104 99.9378 13.112C100.562 12.104 101.402 11.32 102.458 10.76C103.53 10.184 104.754 9.896 106.13 9.896C107.49 9.896 108.706 10.184 109.778 10.76C110.85 11.32 111.69 12.096 112.298 13.088C112.906 14.08 113.21 15.232 113.21 16.544C113.21 17.824 112.906 18.968 112.298 19.976C111.69 20.968 110.85 21.752 109.778 22.328C108.706 22.904 107.49 23.192 106.13 23.192ZM106.13 20.12C106.754 20.12 107.314 19.976 107.81 19.688C108.306 19.4 108.698 18.992 108.986 18.464C109.274 17.92 109.418 17.28 109.418 16.544C109.418 15.792 109.274 15.152 108.986 14.624C108.698 14.096 108.306 13.688 107.81 13.4C107.314 13.112 106.754 12.968 106.13 12.968C105.506 12.968 104.946 13.112 104.45 13.4C103.954 13.688 103.554 14.096 103.25 14.624C102.962 15.152 102.818 15.792 102.818 16.544C102.818 17.28 102.962 17.92 103.25 18.464C103.554 18.992 103.954 19.4 104.45 19.688C104.946 19.976 105.506 20.12 106.13 20.12ZM123.56 9.896C124.584 9.896 125.496 10.104 126.296 10.52C127.112 10.92 127.752 11.544 128.216 12.392C128.68 13.224 128.912 14.296 128.912 15.608V23H125.168V16.184C125.168 15.144 124.936 14.376 124.472 13.88C124.024 13.384 123.384 13.136 122.552 13.136C121.96 13.136 121.424 13.264 120.944 13.52C120.48 13.76 120.112 14.136 119.84 14.648C119.584 15.16 119.456 15.816 119.456 16.616V23H115.712V10.088H119.288V13.664L118.616 12.584C119.08 11.72 119.744 11.056 120.608 10.592C121.472 10.128 122.456 9.896 123.56 9.896Z" fill="white"/>
</svg>