<svg width="25" height="24" viewBox="0 0 25 24" fill="none" xmlns="http://www.w3.org/2000/svg">
<path d="M12.88 2C11.5668 2 10.2664 2.25866 9.05317 2.7612C7.83991 3.26375 6.73752 4.00035 5.80894 4.92893C3.93357 6.8043 2.88 9.34784 2.88 12C2.88 16.42 5.75001 20.17 9.72001 21.5C10.22 21.58 10.38 21.27 10.38 21V19.31C7.61 19.91 7.02 17.97 7.02 17.97C6.56 16.81 5.91001 16.5 5.91001 16.5C5.00001 15.88 5.98 15.9 5.98 15.9C6.98 15.97 7.51 16.93 7.51 16.93C8.38001 18.45 9.85 18 10.42 17.76C10.51 17.11 10.77 16.67 11.05 16.42C8.83 16.17 6.5 15.31 6.5 11.5C6.5 10.39 6.88001 9.5 7.53 8.79C7.43 8.54 7.08 7.5 7.63 6.15C7.63 6.15 8.47 5.88 10.38 7.17C11.17 6.95 12.03 6.84 12.88 6.84C13.73 6.84 14.59 6.95 15.38 7.17C17.29 5.88 18.13 6.15 18.13 6.15C18.68 7.5 18.33 8.54 18.23 8.79C18.88 9.5 19.26 10.39 19.26 11.5C19.26 15.32 16.92 16.16 14.69 16.41C15.05 16.72 15.38 17.33 15.38 18.26V21C15.38 21.27 15.54 21.59 16.05 21.5C20.02 20.16 22.88 16.42 22.88 12C22.88 10.6868 22.6213 9.38642 22.1188 8.17317C21.6163 6.95991 20.8797 5.85752 19.9511 4.92893C19.0225 4.00035 17.9201 3.26375 16.7068 2.7612C15.4936 2.25866 14.1932 2 12.88 2Z" fill="white"/>
</svg>