<svg width="20" height="20" viewBox="0 0 20 20" fill="none" xmlns="http://www.w3.org/2000/svg">
<path d="M18.41 1.77605e-05H1.47C1.27958 -0.00262686 1.0905 0.0322653 0.913566 0.102702C0.73663 0.173138 0.575303 0.277738 0.438797 0.41053C0.302292 0.543321 0.193281 0.701702 0.117992 0.876627C0.0427024 1.05155 0.00260839 1.2396 0 1.43002V18.57C0.00260839 18.7604 0.0427024 18.9485 0.117992 19.1234C0.193281 19.2983 0.302292 19.4567 0.438797 19.5895C0.575303 19.7223 0.73663 19.8269 0.913566 19.8973C1.0905 19.9678 1.27958 20.0027 1.47 20H18.41C18.6004 20.0027 18.7895 19.9678 18.9664 19.8973C19.1434 19.8269 19.3047 19.7223 19.4412 19.5895C19.5777 19.4567 19.6867 19.2983 19.762 19.1234C19.8373 18.9485 19.8774 18.7604 19.88 18.57V1.43002C19.8774 1.2396 19.8373 1.05155 19.762 0.876627C19.6867 0.701702 19.5777 0.543321 19.4412 0.41053C19.3047 0.277738 19.1434 0.173138 18.9664 0.102702C18.7895 0.0322653 18.6004 -0.00262686 18.41 1.77605e-05ZM6.03 16.74H3.03V7.74002H6.03V16.74ZM4.53 6.48002C4.11626 6.48002 3.71947 6.31566 3.42691 6.0231C3.13436 5.73055 2.97 5.33376 2.97 4.92002C2.97 4.50628 3.13436 4.10949 3.42691 3.81693C3.71947 3.52437 4.11626 3.36002 4.53 3.36002C4.7497 3.3351 4.97218 3.35687 5.18288 3.4239C5.39357 3.49093 5.58774 3.60171 5.75266 3.74898C5.91757 3.89625 6.04953 4.0767 6.13987 4.2785C6.23022 4.4803 6.27692 4.69891 6.27692 4.92002C6.27692 5.14112 6.23022 5.35973 6.13987 5.56154C6.04953 5.76334 5.91757 5.94378 5.75266 6.09106C5.58774 6.23833 5.39357 6.34911 5.18288 6.41613C4.97218 6.48316 4.7497 6.50493 4.53 6.48002ZM16.85 16.74H13.85V11.91C13.85 10.7 13.42 9.91002 12.33 9.91002C11.9927 9.91249 11.6642 10.0183 11.3888 10.2132C11.1135 10.4081 10.9045 10.6827 10.79 11C10.7117 11.2351 10.6778 11.4826 10.69 11.73V16.73H7.69V7.73002H10.69V9.00002C10.9625 8.52712 11.3589 8.13754 11.8364 7.87322C12.314 7.6089 12.8546 7.47987 13.4 7.50002C15.4 7.50002 16.85 8.79002 16.85 11.56V16.74Z" fill="white"/>
</svg>