<svg width="24" height="24" viewBox="0 0 24 24" fill="none" xmlns="http://www.w3.org/2000/svg">
<path fill-rule="evenodd" clip-rule="evenodd" d="M11.88 0.651371C18.0754 0.646228 23.2406 5.82166 23.2406 12.0051C23.2406 18.1937 18.0754 23.3537 11.88 23.3502C10.2517 23.3532 8.64188 23.0047 7.16059 22.3285L1.53773 23.3451C1.38847 23.3724 1.23463 23.3596 1.09193 23.3081C0.949227 23.2565 0.822777 23.1679 0.725498 23.0515C0.628219 22.935 0.563599 22.7948 0.538239 22.6452C0.51288 22.4956 0.52769 22.3419 0.581157 22.1999L2.19259 17.9177C1.10671 16.1359 0.531468 14.0899 0.529728 12.0034C0.531443 5.81994 5.69144 0.6548 11.88 0.651371ZM17.58 16.8274C16.3166 17.8491 14.3606 18.8811 12.4903 17.6811C10.0389 16.1057 7.86859 14.0365 6.29487 11.5834C5.37087 10.1468 6.24001 7.84623 7.53944 6.44394C8.05716 5.88337 8.91087 5.97251 9.47487 6.4868L10.6612 7.57023C11.0212 7.89937 11.0349 8.47194 10.8103 8.90737C10.4554 9.58966 10.2463 10.5068 10.6852 11.1908C11.2372 12.0479 11.916 12.8931 13.5377 13.3851C14.028 13.5359 14.6572 13.4708 15.192 13.2548C15.6394 13.0731 16.2069 13.0748 16.5377 13.4279L17.6417 14.6022C18.2503 15.2502 18.2709 16.2685 17.58 16.8274Z" fill="white"/>
</svg>
